<?xml version="1.0" encoding="UTF-8"?>
<svg width="969px" height="265px" viewBox="0 0 969 265" version="1.1" xmlns="http://www.w3.org/2000/svg" xmlns:xlink="http://www.w3.org/1999/xlink">
    <title>findskills_logo_dark_background</title>
    <defs>
        <path d="M0,0 L969,0 L969,265 L0,265 L0,0 Z" id="path-1"></path>
    </defs>
    <g id="findskills_logo_dark_background" stroke="none" fill="none" xlink:href="#path-1" fill-rule="evenodd">
        <path d="M175,155.5 C175,158.937765 174.692494,162.337021 174.084556,165.667882 L199.784425,176.075783 C209.990796,180.209176 214.913917,191.833851 210.780525,202.040222 C210.477692,202.78799 210.129753,203.516689 209.738627,204.2223 C204.400106,213.853246 192.264955,217.332945 182.634009,211.994424 C181.928398,211.603298 181.247178,211.169705 180.594167,210.696084 L158.909974,194.969422 C148.397457,205.756379 133.952065,212 118.5,212 C87.2959116,212 62,186.704088 62,155.5 C62,124.295912 87.2959116,99 118.5,99 C149.704088,99 175,124.295912 175,155.5 Z" id="Combined-Shape" stroke="#FFFFFF" stroke-width="8" fill="#FF9667"></path>
        <g id="Group" stroke-width="1" transform="translate(7.4737, 8)" fill="#FF9667">
            <path d="M115.010307,16.266986 L115.010311,16.2670237 L123.037051,81.6447039 L140.0791,41.4975581 C144.338154,31.4638547 155.924724,26.7825767 165.958427,31.0416311 C175.339935,35.0238452 179.716928,45.8572827 175.734714,55.238791 C175.530543,55.7197893 175.306033,56.1918984 175.061756,56.6539117 L157.119884,90.5866269 L168.026721,81.4355179 C177.334364,73.6254784 191.210987,74.8395256 199.021026,84.1471682 C205.823617,92.2541804 204.766175,104.340802 196.659163,111.143393 C195.823245,111.844811 194.928941,112.473544 193.985991,113.022741 L172.81561,125.352817 L184.963604,122.424921 C196.163587,119.725367 207.431387,126.616326 210.13094,137.816308 C210.238248,138.261511 210.330867,138.710127 210.408645,139.161427 C212.27122,149.968835 205.02,160.239886 194.212592,162.102461 C193.384573,162.245164 192.548332,162.335168 191.708939,162.37193 L139.023694,164.679669 L175.641555,213.093661 C182.459479,222.107865 180.679043,234.942341 171.664839,241.760265 C171.18028,242.126763 170.67964,242.4715 170.164408,242.793453 C160.581566,248.781478 147.958885,245.867302 141.970861,236.28446 C141.648051,235.767857 141.348474,235.237094 141.073052,234.693813 L129.055558,210.989699 L130.865073,230.709839 C131.895606,241.942649 123.625026,251.884053 112.392216,252.914586 C111.771862,252.971499 111.14923,253 110.526271,253 C99.2462877,253 90.1020546,243.855767 90.1020546,232.575784 C90.1020546,231.952825 90.1305559,231.330192 90.1874614,230.709922 L91.2187069,219.466757 C86.2714653,224.545963 78.6984109,226.682092 71.4909676,224.36281 C70.5096333,224.047026 69.555134,223.653243 68.6366034,223.185228 C59.1248112,218.338728 55.3428447,206.699032 60.189345,197.18724 C60.6573597,196.268709 61.1981059,195.389092 61.8063258,194.556918 L62.9336302,193.014411 L29.1834745,212.560427 C18.8471215,218.546602 5.61509878,215.020085 -0.371075505,204.683732 C-0.691259882,204.130868 -0.986789444,203.564089 -1.25679468,202.98506 C-6.48193603,191.779709 -1.63401761,178.460162 9.57133419,173.235021 C9.88622258,173.088186 10.2044866,172.948702 10.5258001,172.816709 L46.1416354,158.185286 L36.3288438,157.385743 C25.1015847,156.470434 16.7420972,146.626938 17.6574059,135.399679 C17.7088953,134.768105 17.7897895,134.139273 17.8998251,133.51523 C19.8558864,122.421855 30.4345443,115.014599 41.5279189,116.97066 C42.1519618,117.080696 42.7705379,117.219754 43.3815872,117.387368 L58.8702802,121.635794 L33.6110969,101.794045 C25.0823301,95.0943221 23.5995968,82.7491922 30.2993195,74.2204254 C30.8534641,73.5149977 31.4552937,72.8483692 32.1005798,72.2252237 C40.8173728,63.8075145 54.7076314,64.0499698 63.1253556,72.7667785 L85.4161311,95.8498025 L71.5414363,21.8213684 C69.3675073,10.2231864 77.0073737,-0.941315447 88.6055557,-3.11524449 C89.0473987,-3.19806224 89.4917454,-3.26691495 89.9379322,-3.3216998 C102.270743,-4.83597861 113.496028,3.93417474 115.010307,16.266986 Z" id="Combined-Shape" stroke="#FFFFFF" stroke-width="8"></path>
            <path d="M157.496096,171.238881 L186.30484,182.90581 C188.320792,183.722233 189.293215,186.018359 188.47678,188.034338 C188.416964,188.182038 188.348239,188.325972 188.270983,188.465346 C187.216509,190.367666 184.819554,191.054982 182.917233,190.000509 C182.77786,189.923253 182.643304,189.837609 182.514308,189.744049 L157.952596,171.93044 L156.370586,170.783073 Z M151.526271,147.5 C151.526271,150.82406 151.128329,154.086009 150.349723,157.242364 L148.059564,166.526342 L141.795444,173.836019 C134.137484,182.772184 123.019854,188 111.026271,188 C88.6587385,188 70.5262709,169.867532 70.5262709,147.5 C70.5262709,125.132468 88.6587385,107 111.026271,107 C133.393803,107 151.526271,125.132468 151.526271,147.5 Z" id="Combined-Shape" stroke="#A53300" stroke-width="24"></path>
        </g>
        <g id="FindSkills" stroke-width="1" transform="translate(257, 63)" fill="#FFFFFF">
            <polygon id="Path" fill-rule="nonzero" points="13.3142857 128 13.3142857 37.0857143 63.2571429 37.0857143 63.2571429 46.2285714 25.1428571 46.2285714 25.1428571 77.0857143 59.6571429 77.0857143 59.6571429 86.1714286 25.1428571 86.1714286 25.1428571 128"></polygon>
            <path d="M99.4285714,128 L99.4285714,71.6571429 L81.2571429,71.6571429 L81.2571429,62.5714286 L110.342857,62.5714286 L110.342857,118.914286 L128.571429,118.914286 L128.571429,128 L99.4285714,128 Z M97.6,38.9142857 C97.6,36.4761905 98.4380952,34.647619 100.114286,33.4285714 C101.790476,32.2095238 103.371429,31.6 104.857143,31.6 C106.380952,31.6 107.980952,32.2095238 109.657143,33.4285714 C111.333333,34.647619 112.171429,36.4761905 112.171429,38.9142857 C112.171429,41.352381 111.333333,43.1809524 109.657143,44.4 C107.980952,45.6190476 106.380952,46.2285714 104.857143,46.2285714 C103.371429,46.2285714 101.790476,45.6190476 100.114286,44.4 C98.4380952,43.1809524 97.6,41.352381 97.6,38.9142857 Z" id="Shape" fill-rule="nonzero"></path>
            <path d="M153.085714,128 L153.085714,62.5714286 L164,62.5714286 L164,76.8571429 C167.12381,71.8285714 170.885714,67.8857143 175.285714,65.0285714 C179.685714,62.1714286 184.095238,60.7428571 188.514286,60.7428571 C192.4,60.7428571 195.92381,61.7714286 199.085714,63.8285714 C202.247619,65.8857143 204.466667,68.5714286 205.742857,71.8857143 C207.019048,75.2 207.657143,81.7142857 207.657143,91.4285714 L207.657143,128 L196.742857,128 L196.742857,90.1142857 C196.742857,83.7904762 196.438095,79.6285714 195.828571,77.6285714 C195.219048,75.6285714 194.104762,73.9809524 192.485714,72.6857143 C190.866667,71.3904762 189.104762,70.7428571 187.2,70.7428571 C183.352381,70.7428571 179.238095,72.5619048 174.857143,76.2 C170.47619,79.8380952 166.857143,84.3809524 164,89.8285714 L164,128 L153.085714,128 Z" id="Path" fill-rule="nonzero"></path>
            <path d="M268.8,113.314286 C265.485714,118.761905 261.495238,122.87619 256.828571,125.657143 C252.161905,128.438095 247.866667,129.828571 243.942857,129.828571 C238.495238,129.828571 233.590476,127.466667 229.228571,122.742857 C224.866667,118.019048 222.685714,110.838095 222.685714,101.2 C222.685714,93.6190476 224.133333,86.8571429 227.028571,80.9142857 C229.92381,74.9714286 233.790476,70.2666667 238.628571,66.8 C243.466667,63.3333333 249.466667,61.6 256.628571,61.6 C258.685714,61.6 261.809524,61.8285714 266,62.2857143 C266.609524,62.3619048 267.542857,62.4571429 268.8,62.5714286 L268.8,33.4285714 L279.771429,33.4285714 L279.771429,128 L268.8,128 L268.8,113.314286 Z M268.8,100.342857 L268.8,72.2857143 C264.914286,71.2571429 261.314286,70.7428571 258,70.7428571 C251.295238,70.7428571 245.704762,73.3428571 241.228571,78.5428571 C236.752381,83.7428571 234.514286,90.8190476 234.514286,99.7714286 C234.514286,106.247619 235.733333,111.133333 238.171429,114.428571 C240.609524,117.72381 243.390476,119.371429 246.514286,119.371429 C249.904762,119.371429 253.657143,117.657143 257.771429,114.228571 C261.885714,110.8 265.561905,106.171429 268.8,100.342857 Z" id="Shape" fill-rule="nonzero"></path>
            <path d="M297.2,126.057143 L297.2,114.914286 C306.571429,119.371429 315.085714,121.6 322.742857,121.6 C325.942857,121.6 329.009524,120.990476 331.942857,119.771429 C334.87619,118.552381 337.095238,116.790476 338.6,114.485714 C340.104762,112.180952 340.857143,109.67619 340.857143,106.971429 C340.857143,103.809524 339.819048,100.847619 337.742857,98.0857143 C335.666667,95.3238095 331.790476,92.2857143 326.114286,88.9714286 L320.114286,85.5428571 L314.057143,82.0571429 C303.428571,75.7714286 298.114286,67.9619048 298.114286,58.6285714 C298.114286,51.7714286 300.495238,46.0095238 305.257143,41.3428571 C310.019048,36.6761905 317.428571,34.3428571 327.485714,34.3428571 C333.961905,34.3428571 340.228571,35.2952381 346.285714,37.2 L346.285714,47.3142857 C339.619048,44.7238095 333.12381,43.4285714 326.8,43.4285714 C321.771429,43.4285714 317.695238,44.7619048 314.571429,47.4285714 C311.447619,50.0952381 309.885714,53.2952381 309.885714,57.0285714 C309.885714,60.7619048 311.085714,63.8571429 313.485714,66.3142857 C315.885714,68.7714286 318.933333,71.0285714 322.628571,73.0857143 L327.2,75.8285714 L332.857143,79.3142857 L337.714286,82.1142857 C347.657143,88.2095238 352.628571,95.8666667 352.628571,105.085714 C352.628571,112.133333 350.066667,118.171429 344.942857,123.2 C339.819048,128.228571 331.619048,130.742857 320.342857,130.742857 C316.761905,130.742857 313.333333,130.438095 310.057143,129.828571 C306.780952,129.219048 302.495238,127.961905 297.2,126.057143 Z" id="Path" fill-rule="nonzero"></path>
            <polygon id="Path" fill-rule="nonzero" points="372 128 372 33.4285714 382.914286 33.4285714 382.914286 92.8571429 414.4 62.5714286 428.914286 62.5714286 397.485714 92.8571429 429.714286 128 414.742857 128 382.914286 92.8571429 382.914286 128"></polygon>
            <path d="M459.428571,128 L459.428571,71.6571429 L441.257143,71.6571429 L441.257143,62.5714286 L470.342857,62.5714286 L470.342857,118.914286 L488.571429,118.914286 L488.571429,128 L459.428571,128 Z M457.6,38.9142857 C457.6,36.4761905 458.438095,34.647619 460.114286,33.4285714 C461.790476,32.2095238 463.371429,31.6 464.857143,31.6 C466.380952,31.6 467.980952,32.2095238 469.657143,33.4285714 C471.333333,34.647619 472.171429,36.4761905 472.171429,38.9142857 C472.171429,41.352381 471.333333,43.1809524 469.657143,44.4 C467.980952,45.6190476 466.380952,46.2285714 464.857143,46.2285714 C463.371429,46.2285714 461.790476,45.6190476 460.114286,44.4 C458.438095,43.1809524 457.6,41.352381 457.6,38.9142857 Z" id="Shape" fill-rule="nonzero"></path>
            <polygon id="Path" fill-rule="nonzero" points="530.685714 128 530.685714 42.5714286 511.085714 42.5714286 511.085714 33.4285714 541.542857 33.4285714 541.542857 118.914286 562 118.914286 562 128"></polygon>
            <polygon id="Path" fill-rule="nonzero" points="602.685714 128 602.685714 42.5714286 583.085714 42.5714286 583.085714 33.4285714 613.542857 33.4285714 613.542857 118.914286 634 118.914286 634 128"></polygon>
            <path d="M657.828571,124.571429 L657.828571,112.971429 C662.209524,115.828571 666.838095,117.838095 671.714286,119 C676.590476,120.161905 680.742857,120.742857 684.171429,120.742857 C689.657143,120.742857 693.609524,119.857143 696.028571,118.085714 C698.447619,116.314286 699.657143,114.095238 699.657143,111.428571 C699.657143,109.67619 699.104762,108.171429 698,106.914286 C696.857143,105.657143 694.038095,104.114286 689.542857,102.285714 L685.771429,100.742857 L678.228571,97.7714286 C670.114286,94.6095238 664.990476,91.6761905 662.857143,88.9714286 C660.72381,86.3047619 659.657143,83.0666667 659.657143,79.2571429 C659.657143,73.847619 661.733333,69.4095238 665.885714,65.9428571 C670.038095,62.4761905 676.8,60.7428571 686.171429,60.7428571 C693.142857,60.7428571 699.752381,61.752381 706,63.7714286 L706,73.6571429 C698.8,71.1047619 692.038095,69.8285714 685.714286,69.8285714 C681.104762,69.8285714 677.504762,70.6380952 674.914286,72.2571429 C672.32381,73.8761905 671.028571,75.8857143 671.028571,78.2857143 C671.028571,80.647619 672.152381,82.5333333 674.4,83.9428571 C676.647619,85.352381 680.285714,86.9714286 685.314286,88.8 L692.685714,91.4857143 C699.466667,93.9619048 704.228571,96.647619 706.971429,99.5428571 C709.67619,102.438095 711.028571,106.038095 711.028571,110.342857 C711.028571,116.019048 708.857143,120.685714 704.514286,124.342857 C700.171429,128 693.2,129.828571 683.6,129.828571 C675.257143,129.828571 666.666667,128.07619 657.828571,124.571429 Z" id="Path" fill-rule="nonzero"></path>
        </g>
    </g>
</svg>