<?xml version="1.0" encoding="UTF-8"?>
<svg width="969px" height="261px" viewBox="0 0 969 261" version="1.1" xmlns="http://www.w3.org/2000/svg" xmlns:xlink="http://www.w3.org/1999/xlink">
    <title>findskills_logo_dark_background</title>
    <defs>
        <path d="M0,0 L969,0 L969,261 L0,261 L0,0 Z" id="path-1"></path>
    </defs>
    <g id="findskills_logo_dark_background" stroke="none" fill="none" xlink:href="#path-1" fill-rule="evenodd" stroke-width="1">
        <g id="FindSkills" transform="translate(257, 63)">
            <polygon id="Path" fill="#FFFFFF" fill-rule="nonzero" points="13.3142857 128 13.3142857 37.0857143 63.2571429 37.0857143 63.2571429 46.2285714 25.1428571 46.2285714 25.1428571 77.0857143 59.6571429 77.0857143 59.6571429 86.1714286 25.1428571 86.1714286 25.1428571 128"></polygon>
            <path d="M99.4285714,128 L99.4285714,71.6571429 L81.2571429,71.6571429 L81.2571429,62.5714286 L110.342857,62.5714286 L110.342857,118.914286 L128.571429,118.914286 L128.571429,128 L99.4285714,128 Z M97.6,38.9142857 C97.6,36.4761905 98.4380952,34.647619 100.114286,33.4285714 C101.790476,32.2095238 103.371429,31.6 104.857143,31.6 C106.380952,31.6 107.980952,32.2095238 109.657143,33.4285714 C111.333333,34.647619 112.171429,36.4761905 112.171429,38.9142857 C112.171429,41.352381 111.333333,43.1809524 109.657143,44.4 C107.980952,45.6190476 106.380952,46.2285714 104.857143,46.2285714 C103.371429,46.2285714 101.790476,45.6190476 100.114286,44.4 C98.4380952,43.1809524 97.6,41.352381 97.6,38.9142857 Z" id="Shape" fill="#FFFFFF" fill-rule="nonzero"></path>
            <path d="M153.085714,128 L153.085714,62.5714286 L164,62.5714286 L164,76.8571429 C167.12381,71.8285714 170.885714,67.8857143 175.285714,65.0285714 C179.685714,62.1714286 184.095238,60.7428571 188.514286,60.7428571 C192.4,60.7428571 195.92381,61.7714286 199.085714,63.8285714 C202.247619,65.8857143 204.466667,68.5714286 205.742857,71.8857143 C207.019048,75.2 207.657143,81.7142857 207.657143,91.4285714 L207.657143,128 L196.742857,128 L196.742857,90.1142857 C196.742857,83.7904762 196.438095,79.6285714 195.828571,77.6285714 C195.219048,75.6285714 194.104762,73.9809524 192.485714,72.6857143 C190.866667,71.3904762 189.104762,70.7428571 187.2,70.7428571 C183.352381,70.7428571 179.238095,72.5619048 174.857143,76.2 C170.47619,79.8380952 166.857143,84.3809524 164,89.8285714 L164,128 L153.085714,128 Z" id="Path" fill="#FFFFFF" fill-rule="nonzero"></path>
            <path d="M268.8,113.314286 C265.485714,118.761905 261.495238,122.87619 256.828571,125.657143 C252.161905,128.438095 247.866667,129.828571 243.942857,129.828571 C238.495238,129.828571 233.590476,127.466667 229.228571,122.742857 C224.866667,118.019048 222.685714,110.838095 222.685714,101.2 C222.685714,93.6190476 224.133333,86.8571429 227.028571,80.9142857 C229.92381,74.9714286 233.790476,70.2666667 238.628571,66.8 C243.466667,63.3333333 249.466667,61.6 256.628571,61.6 C258.685714,61.6 261.809524,61.8285714 266,62.2857143 C266.609524,62.3619048 267.542857,62.4571429 268.8,62.5714286 L268.8,33.4285714 L279.771429,33.4285714 L279.771429,128 L268.8,128 L268.8,113.314286 Z M268.8,100.342857 L268.8,72.2857143 C264.914286,71.2571429 261.314286,70.7428571 258,70.7428571 C251.295238,70.7428571 245.704762,73.3428571 241.228571,78.5428571 C236.752381,83.7428571 234.514286,90.8190476 234.514286,99.7714286 C234.514286,106.247619 235.733333,111.133333 238.171429,114.428571 C240.609524,117.72381 243.390476,119.371429 246.514286,119.371429 C249.904762,119.371429 253.657143,117.657143 257.771429,114.228571 C261.885714,110.8 265.561905,106.171429 268.8,100.342857 Z" id="Shape" fill="#FFFFFF" fill-rule="nonzero"></path>
            <path d="M297.2,126.057143 L297.2,114.914286 C306.571429,119.371429 315.085714,121.6 322.742857,121.6 C325.942857,121.6 329.009524,120.990476 331.942857,119.771429 C334.87619,118.552381 337.095238,116.790476 338.6,114.485714 C340.104762,112.180952 340.857143,109.67619 340.857143,106.971429 C340.857143,103.809524 339.819048,100.847619 337.742857,98.0857143 C335.666667,95.3238095 331.790476,92.2857143 326.114286,88.9714286 L320.114286,85.5428571 L314.057143,82.0571429 C303.428571,75.7714286 298.114286,67.9619048 298.114286,58.6285714 C298.114286,51.7714286 300.495238,46.0095238 305.257143,41.3428571 C310.019048,36.6761905 317.428571,34.3428571 327.485714,34.3428571 C333.961905,34.3428571 340.228571,35.2952381 346.285714,37.2 L346.285714,47.3142857 C339.619048,44.7238095 333.12381,43.4285714 326.8,43.4285714 C321.771429,43.4285714 317.695238,44.7619048 314.571429,47.4285714 C311.447619,50.0952381 309.885714,53.2952381 309.885714,57.0285714 C309.885714,60.7619048 311.085714,63.8571429 313.485714,66.3142857 C315.885714,68.7714286 318.933333,71.0285714 322.628571,73.0857143 L327.2,75.8285714 L332.857143,79.3142857 L337.714286,82.1142857 C347.657143,88.2095238 352.628571,95.8666667 352.628571,105.085714 C352.628571,112.133333 350.066667,118.171429 344.942857,123.2 C339.819048,128.228571 331.619048,130.742857 320.342857,130.742857 C316.761905,130.742857 313.333333,130.438095 310.057143,129.828571 C306.780952,129.219048 302.495238,127.961905 297.2,126.057143 Z" id="Path" fill="#FFFFFF" fill-rule="nonzero"></path>
            <polygon id="Path" fill="#FFFFFF" fill-rule="nonzero" points="372 128 372 33.4285714 382.914286 33.4285714 382.914286 92.8571429 414.4 62.5714286 428.914286 62.5714286 397.485714 92.8571429 429.714286 128 414.742857 128 382.914286 92.8571429 382.914286 128"></polygon>
            <path d="M459.428571,128 L459.428571,71.6571429 L441.257143,71.6571429 L441.257143,62.5714286 L470.342857,62.5714286 L470.342857,118.914286 L488.571429,118.914286 L488.571429,128 L459.428571,128 Z M457.6,38.9142857 C457.6,36.4761905 458.438095,34.647619 460.114286,33.4285714 C461.790476,32.2095238 463.371429,31.6 464.857143,31.6 C466.380952,31.6 467.980952,32.2095238 469.657143,33.4285714 C471.333333,34.647619 472.171429,36.4761905 472.171429,38.9142857 C472.171429,41.352381 471.333333,43.1809524 469.657143,44.4 C467.980952,45.6190476 466.380952,46.2285714 464.857143,46.2285714 C463.371429,46.2285714 461.790476,45.6190476 460.114286,44.4 C458.438095,43.1809524 457.6,41.352381 457.6,38.9142857 Z" id="Shape" fill="#FFFFFF" fill-rule="nonzero"></path>
            <polygon id="Path" fill="#FFFFFF" fill-rule="nonzero" points="530.685714 128 530.685714 42.5714286 511.085714 42.5714286 511.085714 33.4285714 541.542857 33.4285714 541.542857 118.914286 562 118.914286 562 128"></polygon>
            <polygon id="Path" fill="#FFFFFF" fill-rule="nonzero" points="602.685714 128 602.685714 42.5714286 583.085714 42.5714286 583.085714 33.4285714 613.542857 33.4285714 613.542857 118.914286 634 118.914286 634 128"></polygon>
            <path d="M657.828571,124.571429 L657.828571,112.971429 C662.209524,115.828571 666.838095,117.838095 671.714286,119 C676.590476,120.161905 680.742857,120.742857 684.171429,120.742857 C689.657143,120.742857 693.609524,119.857143 696.028571,118.085714 C698.447619,116.314286 699.657143,114.095238 699.657143,111.428571 C699.657143,109.67619 699.104762,108.171429 698,106.914286 C696.857143,105.657143 694.038095,104.114286 689.542857,102.285714 L685.771429,100.742857 L678.228571,97.7714286 C670.114286,94.6095238 664.990476,91.6761905 662.857143,88.9714286 C660.72381,86.3047619 659.657143,83.0666667 659.657143,79.2571429 C659.657143,73.847619 661.733333,69.4095238 665.885714,65.9428571 C670.038095,62.4761905 676.8,60.7428571 686.171429,60.7428571 C693.142857,60.7428571 699.752381,61.752381 706,63.7714286 L706,73.6571429 C698.8,71.1047619 692.038095,69.8285714 685.714286,69.8285714 C681.104762,69.8285714 677.504762,70.6380952 674.914286,72.2571429 C672.32381,73.8761905 671.028571,75.8857143 671.028571,78.2857143 C671.028571,80.647619 672.152381,82.5333333 674.4,83.9428571 C676.647619,85.352381 680.285714,86.9714286 685.314286,88.8 L692.685714,91.4857143 C699.466667,93.9619048 704.228571,96.647619 706.971429,99.5428571 C709.67619,102.438095 711.028571,106.038095 711.028571,110.342857 C711.028571,116.019048 708.857143,120.685714 704.514286,124.342857 C700.171429,128 693.2,129.828571 683.6,129.828571 C675.257143,129.828571 666.666667,128.07619 657.828571,124.571429 Z" id="Path" fill="#FFFFFF" fill-rule="nonzero"></path>
            <g id="Group" transform="translate(-247, -63)">
                <path d="M123.818014,34.1932561 C123.98809,35.2827548 124.113122,36.3788096 124.19279,37.4786216 L124.816795,46.0992827 C133.215211,37.7967074 145.811252,34.2965301 157.864741,38.0759179 C158.648089,38.3215375 159.421983,38.5963472 160.184804,38.8997716 C175.24992,44.8921663 182.604814,61.962652 176.61242,77.0277685 C175.929145,78.7455485 175.085139,80.3949387 174.091653,81.9539638 C183.262648,81.3475062 192.584816,85.0091198 198.887314,92.6365237 L199.1451,92.9529185 C207.576537,103.448157 207.010381,118.260204 198.463368,128.064791 C204.61297,131.945904 209.205993,138.26109 210.695758,145.963947 C210.969914,147.381472 211.131159,148.818515 211.177978,150.261548 C211.420717,157.743253 208.39392,164.57234 203.385031,169.375023 C213.280756,175.751518 218.033529,188.21867 214.182917,199.923517 C213.664782,201.498512 212.999961,203.021398 212.197202,204.47214 C205.142749,217.220904 189.08907,221.837056 176.340306,214.782603 C175.760632,214.461844 175.193564,214.11954 174.640265,213.756488 C174.770238,223.836583 169.995251,233.749016 161.128733,239.830414 C151.712813,246.288638 139.369288,245.237598 131.189595,237.998582 C130.817481,249.847798 121.644701,259.823246 109.538515,260.905539 C108.834462,260.968482 108.127952,261 107.42109,261 C93.557392,261 82.3186439,249.761252 82.3186439,235.897553 C82.3186439,235.603646 82.3238056,235.309762 82.3341267,235.016036 L82.3698155,234.020349 C77.1651969,236.570208 70.9860623,237.129107 65.0735844,235.091987 C64.0750545,234.747947 63.101883,234.3343 62.1612326,233.85409 C52.5729625,228.959193 47.6988223,218.484136 49.4761995,208.407456 L40.3427795,213.613681 C27.7505727,220.79084 11.7243349,216.401077 4.5471755,203.80887 C4.1902435,203.182639 3.85926315,202.541968 3.55507643,201.888488 C-2.64757418,188.563416 2.49238065,172.865671 15.0056947,165.677837 C8.53809757,160.210469 4.53318935,151.952121 4.80437199,142.828141 C4.83451382,141.814014 4.91824797,140.80219 5.0552239,139.796905 C6.48109471,129.332241 13.9743902,121.185178 23.5034021,118.420487 L21.7254523,117.175528 C8.76676388,108.094603 5.62321592,90.2279653 14.7041414,77.2692769 C15.8722733,75.602326 17.2147173,74.0646023 18.7087349,72.682152 C28.9323213,63.2220229 43.6417666,61.6480625 55.3499128,67.6698723 L48.9592724,48.7335085 C42.4845172,29.5460679 52.7901849,8.74274782 71.9776256,2.2679926 C73.9544073,1.60093239 75.9845151,1.103804 78.0458473,0.782019618 C99.9117402,-2.63135689 120.404637,12.3273632 123.818014,34.1932561 Z" id="Combined-Shape" fill="#FFFFFF"></path>
                <path d="M111.321232,36.2486516 C111.440906,36.9667312 111.531684,37.6893289 111.593346,38.4146965 L116.099716,91.4270874 L125.60374,63.6461487 C129.61552,51.9196706 142.373899,45.6656719 154.100377,49.6774518 C154.384855,49.7747751 154.667347,49.8778058 154.947684,49.9864815 C165.226713,53.9712594 170.329212,65.5343595 166.344434,75.8133885 C165.967514,76.7856798 165.514985,77.7269407 164.991001,78.6285281 L147.500716,108.722087 L162.003646,96.7203594 C170.112656,90.0095813 182.126467,91.143072 188.837245,99.2520817 C188.921706,99.3541396 189.005099,99.4570754 189.087413,99.5608723 C195.392268,107.511231 194.058324,119.067365 186.107966,125.37222 C185.832151,125.590949 185.550106,125.801706 185.262182,126.00423 L170.405716,136.453087 L180.366678,134.994962 C189.551321,133.649324 198.087801,140.004093 199.433439,149.188736 C199.533143,149.869265 199.590981,150.555273 199.606626,151.242889 C199.813916,160.353067 192.596699,167.906366 183.486522,168.113656 C182.710559,168.131312 181.934317,168.094193 181.163579,168.002575 L174.834716,167.250087 L192.582319,174.163591 C201.574093,177.666326 206.023838,187.795127 202.521103,196.7869 C202.236268,197.518093 201.902499,198.229267 201.522063,198.915592 C196.843684,207.355611 186.209121,210.405023 177.769102,205.726644 C177.082777,205.346208 176.42286,204.919969 175.793833,204.450822 L152.521716,187.093087 L161.783645,202.541456 C167.462355,212.013696 164.868593,224.262975 155.837951,230.620537 C148.260779,235.954858 137.793945,234.136668 132.459624,226.559495 C131.962581,225.853467 131.520779,225.110125 131.138154,224.336093 L122.102716,206.058087 L123.955343,232.511954 C124.602688,241.758832 117.631389,249.779684 108.384511,250.427029 C107.9944,250.454339 107.603455,250.468007 107.21239,250.468007 C97.5410415,250.468007 89.7008649,242.62783 89.7008649,232.956482 C89.7008649,232.795904 89.7030736,232.635334 89.7074904,232.474817 L90.3017164,210.856087 L88.5650542,215.432781 C85.400135,223.769971 76.0758337,227.962924 67.7386443,224.798005 C67.1929042,224.590834 66.6588,224.354221 66.1386841,224.089209 C57.8557233,219.86883 54.5623503,209.73287 58.7827296,201.449909 C58.9534758,201.114801 59.1354056,200.785509 59.3282125,200.462589 L64.9537164,191.040087 L37.4114901,205.862393 C29.1459838,210.310628 18.8394599,207.216119 14.3912247,198.950613 C14.2371583,198.664333 14.0913378,198.373693 13.9539432,198.079049 C9.80064946,189.172282 13.654101,178.585011 22.5608681,174.431717 C22.6226478,174.402909 22.6845925,174.374456 22.7466991,174.346359 L43.4727164,164.970087 L34.8897783,164.527752 C24.0089622,163.966489 15.6433114,154.690851 16.2045743,143.810035 C16.2345146,143.229604 16.2900906,142.650779 16.3711398,142.075255 C17.794379,131.968943 27.140927,124.929922 37.247239,126.353161 C38.1823674,126.484852 39.1060255,126.68803 40.0100965,126.96091 L52.7267164,130.798087 L29.4626433,113.151719 C20.322971,106.218813 18.5340333,93.1894139 25.4669391,84.0497417 C26.2289834,83.0451362 27.0809219,82.1120076 28.0122027,81.2619137 C37.5510976,72.554596 52.3425754,73.2287226 61.049893,82.7676176 C61.3884534,83.1385115 61.714979,83.5202147 62.0289619,83.9121333 L73.6127164,98.3710874 L59.0379655,47.0836397 C55.061928,33.0922829 63.1809485,18.5268318 77.1723053,14.5507943 C78.1161188,14.2825832 79.0741832,14.0673248 80.0420178,13.906026 C94.8492799,11.4382553 108.853461,21.4413895 111.321232,36.2486516 Z" id="Combined-Shape" fill="#FF9667"></path>
                <g transform="translate(54.2124, 95.468)">
                    <path d="M111.450265,42.5703909 C121.100195,42.5703909 128.923009,50.3932049 128.923009,60.0431349 C128.923009,60.8278474 128.870146,61.6116687 128.764779,62.389275 L121.532703,115.761998 C120.849075,120.807176 116.541548,124.570391 111.450265,124.570391 C106.358982,124.570391 102.051455,120.807176 101.367827,115.761998 L94.1357508,62.389275 C92.8400134,52.8267328 99.5415828,44.024358 109.104125,42.7286205 C109.881731,42.6232538 110.665553,42.5703909 111.450265,42.5703909 Z" id="Rectangle-Copy-7" fill="#A53300" transform="translate(111.4503, 83.5704) rotate(119) translate(-111.4503, -83.5704)"></path>
                    <circle id="Oval" stroke="#A53300" stroke-width="24" fill="#FF9667" cx="52.5" cy="52.5" r="41.5"></circle>
                </g>
            </g>
        </g>
    </g>
</svg>