<?xml version="1.0" encoding="UTF-8"?>
<svg width="216px" height="261px" viewBox="0 0 216 261" version="1.1" xmlns="http://www.w3.org/2000/svg" xmlns:xlink="http://www.w3.org/1999/xlink">
    <title>findskills_logo</title>
    <g id="findskills_logo" stroke="none" fill="none" fill-rule="evenodd" stroke-width="1">
        <g id="Group">
            <path d="M123.818014,34.1932561 C123.98809,35.2827548 124.113122,36.3788096 124.19279,37.4786216 L124.816795,46.0992827 C133.215211,37.7967074 145.811252,34.2965301 157.864741,38.0759179 C158.648089,38.3215375 159.421983,38.5963472 160.184804,38.8997716 C175.24992,44.8921663 182.604814,61.962652 176.61242,77.0277685 C175.929145,78.7455485 175.085139,80.3949387 174.091653,81.9539638 C183.262648,81.3475062 192.584816,85.0091198 198.887314,92.6365237 L199.1451,92.9529185 C207.576537,103.448157 207.010381,118.260204 198.463368,128.064791 C204.61297,131.945904 209.205993,138.26109 210.695758,145.963947 C210.969914,147.381472 211.131159,148.818515 211.177978,150.261548 C211.420717,157.743253 208.39392,164.57234 203.385031,169.375023 C213.280756,175.751518 218.033529,188.21867 214.182917,199.923517 C213.664782,201.498512 212.999961,203.021398 212.197202,204.47214 C205.142749,217.220904 189.08907,221.837056 176.340306,214.782603 C175.760632,214.461844 175.193564,214.11954 174.640265,213.756488 C174.770238,223.836583 169.995251,233.749016 161.128733,239.830414 C151.712813,246.288638 139.369288,245.237598 131.189595,237.998582 C130.817481,249.847798 121.644701,259.823246 109.538515,260.905539 C108.834462,260.968482 108.127952,261 107.42109,261 C93.557392,261 82.3186439,249.761252 82.3186439,235.897553 C82.3186439,235.603646 82.3238056,235.309762 82.3341267,235.016036 L82.3698155,234.020349 C77.1651969,236.570208 70.9860623,237.129107 65.0735844,235.091987 C64.0750545,234.747947 63.101883,234.3343 62.1612326,233.85409 C52.5729625,228.959193 47.6988223,218.484136 49.4761995,208.407456 L40.3427795,213.613681 C27.7505727,220.79084 11.7243349,216.401077 4.5471755,203.80887 C4.1902435,203.182639 3.85926315,202.541968 3.55507643,201.888488 C-2.64757418,188.563416 2.49238065,172.865671 15.0056947,165.677837 C8.53809757,160.210469 4.53318935,151.952121 4.80437199,142.828141 C4.83451382,141.814014 4.91824797,140.80219 5.0552239,139.796905 C6.48109471,129.332241 13.9743902,121.185178 23.5034021,118.420487 L21.7254523,117.175528 C8.76676388,108.094603 5.62321592,90.2279653 14.7041414,77.2692769 C15.8722733,75.602326 17.2147173,74.0646023 18.7087349,72.682152 C28.9323213,63.2220229 43.6417666,61.6480625 55.3499128,67.6698723 L48.9592724,48.7335085 C42.4845172,29.5460679 52.7901849,8.74274782 71.9776256,2.2679926 C73.9544073,1.60093239 75.9845151,1.103804 78.0458473,0.782019618 C99.9117402,-2.63135689 120.404637,12.3273632 123.818014,34.1932561 Z" id="Combined-Shape" fill="#FFFFFF"></path>
            <path d="M111.321232,36.2486516 C111.440906,36.9667312 111.531684,37.6893289 111.593346,38.4146965 L116.099716,91.4270874 L125.60374,63.6461487 C129.61552,51.9196706 142.373899,45.6656719 154.100377,49.6774518 C154.384855,49.7747751 154.667347,49.8778058 154.947684,49.9864815 C165.226713,53.9712594 170.329212,65.5343595 166.344434,75.8133885 C165.967514,76.7856798 165.514985,77.7269407 164.991001,78.6285281 L147.500716,108.722087 L162.003646,96.7203594 C170.112656,90.0095813 182.126467,91.143072 188.837245,99.2520817 C188.921706,99.3541396 189.005099,99.4570754 189.087413,99.5608723 C195.392268,107.511231 194.058324,119.067365 186.107966,125.37222 C185.832151,125.590949 185.550106,125.801706 185.262182,126.00423 L170.405716,136.453087 L180.366678,134.994962 C189.551321,133.649324 198.087801,140.004093 199.433439,149.188736 C199.533143,149.869265 199.590981,150.555273 199.606626,151.242889 C199.813916,160.353067 192.596699,167.906366 183.486522,168.113656 C182.710559,168.131312 181.934317,168.094193 181.163579,168.002575 L174.834716,167.250087 L192.582319,174.163591 C201.574093,177.666326 206.023838,187.795127 202.521103,196.7869 C202.236268,197.518093 201.902499,198.229267 201.522063,198.915592 C196.843684,207.355611 186.209121,210.405023 177.769102,205.726644 C177.082777,205.346208 176.42286,204.919969 175.793833,204.450822 L152.521716,187.093087 L161.783645,202.541456 C167.462355,212.013696 164.868593,224.262975 155.837951,230.620537 C148.260779,235.954858 137.793945,234.136668 132.459624,226.559495 C131.962581,225.853467 131.520779,225.110125 131.138154,224.336093 L122.102716,206.058087 L123.955343,232.511954 C124.602688,241.758832 117.631389,249.779684 108.384511,250.427029 C107.9944,250.454339 107.603455,250.468007 107.21239,250.468007 C97.5410415,250.468007 89.7008649,242.62783 89.7008649,232.956482 C89.7008649,232.795904 89.7030736,232.635334 89.7074904,232.474817 L90.3017164,210.856087 L88.5650542,215.432781 C85.400135,223.769971 76.0758337,227.962924 67.7386443,224.798005 C67.1929042,224.590834 66.6588,224.354221 66.1386841,224.089209 C57.8557233,219.86883 54.5623503,209.73287 58.7827296,201.449909 C58.9534758,201.114801 59.1354056,200.785509 59.3282125,200.462589 L64.9537164,191.040087 L37.4114901,205.862393 C29.1459838,210.310628 18.8394599,207.216119 14.3912247,198.950613 C14.2371583,198.664333 14.0913378,198.373693 13.9539432,198.079049 C9.80064946,189.172282 13.654101,178.585011 22.5608681,174.431717 C22.6226478,174.402909 22.6845925,174.374456 22.7466991,174.346359 L43.4727164,164.970087 L34.8897783,164.527752 C24.0089622,163.966489 15.6433114,154.690851 16.2045743,143.810035 C16.2345146,143.229604 16.2900906,142.650779 16.3711398,142.075255 C17.794379,131.968943 27.140927,124.929922 37.247239,126.353161 C38.1823674,126.484852 39.1060255,126.68803 40.0100965,126.96091 L52.7267164,130.798087 L29.4626433,113.151719 C20.322971,106.218813 18.5340333,93.1894139 25.4669391,84.0497417 C26.2289834,83.0451362 27.0809219,82.1120076 28.0122027,81.2619137 C37.5510976,72.554596 52.3425754,73.2287226 61.049893,82.7676176 C61.3884534,83.1385115 61.714979,83.5202147 62.0289619,83.9121333 L73.6127164,98.3710874 L59.0379655,47.0836397 C55.061928,33.0922829 63.1809485,18.5268318 77.1723053,14.5507943 C78.1161188,14.2825832 79.0741832,14.0673248 80.0420178,13.906026 C94.8492799,11.4382553 108.853461,21.4413895 111.321232,36.2486516 Z" id="Combined-Shape" fill="#FF9667"></path>
            <g transform="translate(54.2124, 95.468)">
                <path d="M111.450265,42.5703909 C121.100195,42.5703909 128.923009,50.3932049 128.923009,60.0431349 C128.923009,60.8278474 128.870146,61.6116687 128.764779,62.389275 L121.532703,115.761998 C120.849075,120.807176 116.541548,124.570391 111.450265,124.570391 C106.358982,124.570391 102.051455,120.807176 101.367827,115.761998 L94.1357508,62.389275 C92.8400134,52.8267328 99.5415828,44.024358 109.104125,42.7286205 C109.881731,42.6232538 110.665553,42.5703909 111.450265,42.5703909 Z" id="Rectangle-Copy-7" fill="#A53300" transform="translate(111.4503, 83.5704) rotate(119) translate(-111.4503, -83.5704)"></path>
                <circle id="Oval" stroke="#A53300" stroke-width="24" fill="#FF9667" cx="52.5" cy="52.5" r="41.5"></circle>
            </g>
        </g>
    </g>
</svg>