<?xml version="1.0" encoding="UTF-8"?>
<svg width="223px" height="265px" viewBox="0 0 223 265" version="1.1" xmlns="http://www.w3.org/2000/svg" xmlns:xlink="http://www.w3.org/1999/xlink">
    <title>findskills_logo</title>
    <defs>
        <path d="M0,0 L223,0 L223,265 L0,265 L0,0 Z" id="path-1"></path>
        <path d="M111.026271,95 C140.02122,95 163.526271,118.505051 163.526271,147.5 C163.526271,151.849242 162.997407,156.074962 162.000481,160.116358 L190.809225,171.783287 C198.967998,175.08744 202.903445,184.379978 199.599292,192.538751 C199.357213,193.136502 199.079078,193.71901 198.766419,194.283061 C194.49891,201.981851 184.798308,204.763454 177.099518,200.495945 C176.535467,200.183286 175.990913,199.836681 175.468858,199.458041 L150.907334,181.644569 C141.278574,192.880485 126.983848,200 111.026271,200 C82.0313215,200 58.5262709,176.494949 58.5262709,147.5 C58.5262709,118.505051 82.0313215,95 111.026271,95 Z" id="path-2"></path>
    </defs>
    <g id="findskills_logo" stroke="none" fill="none" xlink:href="#path-1" fill-rule="evenodd" stroke-width="1">
        <g id="Group" transform="translate(7.4737, 8)">
            <g id="Combined-Shape">
                <use fill="#FF9667" fill-rule="evenodd" xlink:href="#path-2"></use>
                <path stroke="#FFFFFF" stroke-width="8" d="M167.526271,147.5 C167.526271,150.937765 167.218765,154.337021 166.610827,157.667882 L192.310696,168.075783 C202.517067,172.209176 207.440188,183.833851 203.306796,194.040222 C203.003963,194.78799 202.656024,195.516689 202.264898,196.2223 C196.926377,205.853246 184.791226,209.332945 175.16028,203.994424 C174.454669,203.603298 173.773449,203.169705 173.120438,202.696084 L151.436245,186.969422 C140.923727,197.756379 126.478336,204 111.026271,204 C79.8221825,204 54.5262709,178.704088 54.5262709,147.5 C54.5262709,116.295912 79.8221825,91 111.026271,91 C142.230359,91 167.526271,116.295912 167.526271,147.5 Z"></path>
                <use stroke="#979797" stroke-width="1" xlink:href="#path-2"></use>
            </g>
            <g fill="#FF9667" id="Combined-Shape">
                <path d="M115.010307,16.266986 L115.010311,16.2670237 L123.037051,81.6447039 L140.0791,41.4975581 C144.338154,31.4638547 155.924724,26.7825767 165.958427,31.0416311 C175.339935,35.0238452 179.716928,45.8572827 175.734714,55.238791 C175.530543,55.7197893 175.306033,56.1918984 175.061756,56.6539117 L157.119884,90.5866269 L168.026721,81.4355179 C177.334364,73.6254784 191.210987,74.8395256 199.021026,84.1471682 C205.823617,92.2541804 204.766175,104.340802 196.659163,111.143393 C195.823245,111.844811 194.928941,112.473544 193.985991,113.022741 L172.81561,125.352817 L184.963604,122.424921 C196.163587,119.725367 207.431387,126.616326 210.13094,137.816308 C210.238248,138.261511 210.330867,138.710127 210.408645,139.161427 C212.27122,149.968835 205.02,160.239886 194.212592,162.102461 C193.384573,162.245164 192.548332,162.335168 191.708939,162.37193 L139.023694,164.679669 L175.641555,213.093661 C182.459479,222.107865 180.679043,234.942341 171.664839,241.760265 C171.18028,242.126763 170.67964,242.4715 170.164408,242.793453 C160.581566,248.781478 147.958885,245.867302 141.970861,236.28446 C141.648051,235.767857 141.348474,235.237094 141.073052,234.693813 L129.055558,210.989699 L130.865073,230.709839 C131.895606,241.942649 123.625026,251.884053 112.392216,252.914586 C111.771862,252.971499 111.14923,253 110.526271,253 C99.2462877,253 90.1020546,243.855767 90.1020546,232.575784 C90.1020546,231.952825 90.1305559,231.330192 90.1874614,230.709922 L91.2187069,219.466757 C86.2714653,224.545963 78.6984109,226.682092 71.4909676,224.36281 C70.5096333,224.047026 69.555134,223.653243 68.6366034,223.185228 C59.1248112,218.338728 55.3428447,206.699032 60.189345,197.18724 C60.6573597,196.268709 61.1981059,195.389092 61.8063258,194.556918 L62.9336302,193.014411 L29.1834745,212.560427 C18.8471215,218.546602 5.61509878,215.020085 -0.371075505,204.683732 C-0.691259882,204.130868 -0.986789444,203.564089 -1.25679468,202.98506 C-6.48193603,191.779709 -1.63401761,178.460162 9.57133419,173.235021 C9.88622258,173.088186 10.2044866,172.948702 10.5258001,172.816709 L46.1416354,158.185286 L36.3288438,157.385743 C25.1015847,156.470434 16.7420972,146.626938 17.6574059,135.399679 C17.7088953,134.768105 17.7897895,134.139273 17.8998251,133.51523 C19.8558864,122.421855 30.4345443,115.014599 41.5279189,116.97066 C42.1519618,117.080696 42.7705379,117.219754 43.3815872,117.387368 L58.8702802,121.635794 L33.6110969,101.794045 C25.0823301,95.0943221 23.5995968,82.7491922 30.2993195,74.2204254 C30.8534641,73.5149977 31.4552937,72.8483692 32.1005798,72.2252237 C40.8173728,63.8075145 54.7076314,64.0499698 63.1253556,72.7667785 L85.4161311,95.8498025 L71.5414363,21.8213684 C69.3675073,10.2231864 77.0073737,-0.941315447 88.6055557,-3.11524449 C89.0473987,-3.19806224 89.4917454,-3.26691495 89.9379322,-3.3216998 C102.270743,-4.83597861 113.496028,3.93417474 115.010307,16.266986 Z" stroke="#FFFFFF" stroke-width="8"></path>
                <path d="M157.496096,171.238881 L186.30484,182.90581 C188.320792,183.722233 189.293215,186.018359 188.47678,188.034338 C188.416964,188.182038 188.348239,188.325972 188.270983,188.465346 C187.216509,190.367666 184.819554,191.054982 182.917233,190.000509 C182.77786,189.923253 182.643304,189.837609 182.514308,189.744049 L157.952596,171.93044 L156.370586,170.783073 Z M151.526271,147.5 C151.526271,150.82406 151.128329,154.086009 150.349723,157.242364 L148.059564,166.526342 L141.795444,173.836019 C134.137484,182.772184 123.019854,188 111.026271,188 C88.6587385,188 70.5262709,169.867532 70.5262709,147.5 C70.5262709,125.132468 88.6587385,107 111.026271,107 C133.393803,107 151.526271,125.132468 151.526271,147.5 Z" stroke="#A53300" stroke-width="24"></path>
            </g>
        </g>
    </g>
</svg>